# xmcd
#
# Track frame offsets:
#	150
#	17575
#	34742
#	51395
#	69895
#	79210
#	92320
#	104120
#	114080
#	124582
#	134272
#	149820
#	163605
#	178630
#	198457
#	215252
#
# Disc length: 3024 seconds
#
# Revision: 1
# Processed by: cddbd v1.5.1PL0 Copyright (c) Steve Scherf et al.
# Submitted via: CDex 1.50Beta5
#
DISCID=dd0bce10
DTITLE=きただにひろし - テレビまんがデラックス SFヒーロー編 Disc 2
DYEAR=2000
DGENRE=
TTITLE0=高橋洋樹/魔訶不思議アドベンチャー
TTITLE1=橋本潮/ロマンティックあげるよ
TTITLE2=MAKE-UP/ペガサス幻想
TTITLE3=MAKE-UP/永遠ブルー
TTITLE4=新田洋/タイガー・マスク
TTITLE5=新田洋/みなしごのバラード
TTITLE6=ささきいさお/たたかえ!キャシャーン
TTITLE7=ささきいさお/おれは新造人間
TTITLE8=子門真人/勇者ライディーン
TTITLE9=子門真人/おれは洸だ
TTITLE10=ささきいさお/大空魔竜ガイキング
TTITLE11=ささきいさお/星空のガイキング
TTITLE12=ささきいさお/立て!闘将ダイモス
TTITLE13=かおりくみこ/エリカのバラード
TTITLE14=HARRY/ミッドナイト・サブマリン
TTITLE15=HARRY/ドリーム・シティ・ネオ・トキオ
EXTD=
EXTT0=
EXTT1=
EXTT2=
EXTT3=
EXTT4=
EXTT5=
EXTT6=
EXTT7=
EXTT8=
EXTT9=
EXTT10=
EXTT11=
EXTT12=
EXTT13=
EXTT14=
EXTT15=
PLAYORDER=
